<mxfile host="Electron" modified="2023-11-11T22:20:06.190Z" agent="Mozilla/5.0 (Macintosh; Intel Mac OS X 10_15_7) AppleWebKit/537.36 (KHTML, like Gecko) draw.io/22.0.3 Chrome/114.0.5735.289 Electron/25.8.4 Safari/537.36" etag="P2HXY0UPeV2_ux05sUNz" version="22.0.3" type="device">
  <diagram id="C5RBs43oDa-KdzZeNtuy" name="Page-1">
    <mxGraphModel dx="1418" dy="1515" grid="1" gridSize="10" guides="1" tooltips="1" connect="1" arrows="1" fold="1" page="1" pageScale="1" pageWidth="827" pageHeight="1169" math="0" shadow="1">
      <root>
        <mxCell id="WIyWlLk6GJQsqaUBKTNV-0" />
        <mxCell id="WIyWlLk6GJQsqaUBKTNV-1" parent="WIyWlLk6GJQsqaUBKTNV-0" />
        <mxCell id="NkXM1xrEq3wAESpb0wEN-16" style="edgeStyle=orthogonalEdgeStyle;rounded=0;orthogonalLoop=1;jettySize=auto;html=1;strokeWidth=5;fillColor=#d80073;strokeColor=#A50040;" edge="1" parent="WIyWlLk6GJQsqaUBKTNV-1" source="NkXM1xrEq3wAESpb0wEN-1" target="NkXM1xrEq3wAESpb0wEN-11">
          <mxGeometry relative="1" as="geometry" />
        </mxCell>
        <mxCell id="NkXM1xrEq3wAESpb0wEN-1" value="&lt;u&gt;Mannette&lt;/u&gt;" style="rounded=0;whiteSpace=wrap;html=1;verticalAlign=top;" vertex="1" parent="WIyWlLk6GJQsqaUBKTNV-1">
          <mxGeometry x="-280" y="-20" width="560" height="290" as="geometry" />
        </mxCell>
        <mxCell id="NkXM1xrEq3wAESpb0wEN-2" value="Robot" style="rounded=0;whiteSpace=wrap;html=1;verticalAlign=top;" vertex="1" parent="WIyWlLk6GJQsqaUBKTNV-1">
          <mxGeometry x="-280" y="630" width="560" height="480" as="geometry" />
        </mxCell>
        <mxCell id="NkXM1xrEq3wAESpb0wEN-17" style="edgeStyle=orthogonalEdgeStyle;rounded=0;orthogonalLoop=1;jettySize=auto;html=1;strokeColor=#A50040;strokeWidth=5;fillColor=#d80073;" edge="1" parent="WIyWlLk6GJQsqaUBKTNV-1" source="NkXM1xrEq3wAESpb0wEN-11" target="NkXM1xrEq3wAESpb0wEN-2">
          <mxGeometry relative="1" as="geometry" />
        </mxCell>
        <mxCell id="NkXM1xrEq3wAESpb0wEN-11" value="&lt;p style=&quot;margin:0px;margin-top:4px;text-align:center;text-decoration:underline;&quot;&gt;&lt;b&gt;Struct RadioData (9o)&lt;/b&gt;&lt;/p&gt;&lt;hr&gt;&lt;p style=&quot;margin:0px;margin-left:8px;&quot;&gt;joystickData : JoystickData&lt;/p&gt;&lt;p style=&quot;margin:0px;margin-left:8px;&quot;&gt;&lt;br&gt;grabberHeight: byte (1o)&lt;/p&gt;&lt;p style=&quot;margin:0px;margin-left:8px;&quot;&gt;grabberOpening: byte (1o)&lt;/p&gt;&lt;p style=&quot;margin:0px;margin-left:8px;&quot;&gt;&lt;span style=&quot;background-color: initial;&quot;&gt;score: byte (1o)&lt;/span&gt;&lt;br&gt;&lt;/p&gt;&lt;p style=&quot;margin:0px;margin-left:8px;&quot;&gt;&lt;span style=&quot;background-color: initial;&quot;&gt;&lt;br&gt;&lt;/span&gt;&lt;/p&gt;&lt;p style=&quot;margin: 0px 0px 0px 8px;&quot;&gt;magnetsState: boolean (1o)&lt;/p&gt;&lt;p style=&quot;margin: 0px 0px 0px 8px;&quot;&gt;solarPanelRodState: boolean (1o)&lt;/p&gt;" style="verticalAlign=top;align=left;overflow=fill;fontSize=12;fontFamily=Helvetica;html=1;whiteSpace=wrap;rounded=0;" vertex="1" parent="WIyWlLk6GJQsqaUBKTNV-1">
          <mxGeometry x="-105" y="380" width="210" height="150" as="geometry" />
        </mxCell>
        <mxCell id="NkXM1xrEq3wAESpb0wEN-12" value="&lt;p style=&quot;margin:0px;margin-top:4px;text-align:center;text-decoration:underline;&quot;&gt;&lt;b&gt;JoystickData (4o)&lt;/b&gt;&lt;/p&gt;&lt;hr&gt;&lt;p style=&quot;margin:0px;margin-left:8px;&quot;&gt;x:&amp;nbsp; byte (1o)&lt;br&gt;y: byte (1o)&lt;br&gt;holonomX: byte (1o)&lt;/p&gt;&lt;p style=&quot;margin:0px;margin-left:8px;&quot;&gt;holonomY: byte (1o)&lt;/p&gt;" style="verticalAlign=top;align=left;overflow=fill;fontSize=12;fontFamily=Helvetica;html=1;whiteSpace=wrap;rounded=0;" vertex="1" parent="WIyWlLk6GJQsqaUBKTNV-1">
          <mxGeometry x="-350" y="310" width="190" height="100" as="geometry" />
        </mxCell>
        <mxCell id="NkXM1xrEq3wAESpb0wEN-13" style="edgeStyle=orthogonalEdgeStyle;rounded=0;orthogonalLoop=1;jettySize=auto;html=1;" edge="1" parent="WIyWlLk6GJQsqaUBKTNV-1" source="NkXM1xrEq3wAESpb0wEN-12" target="NkXM1xrEq3wAESpb0wEN-11">
          <mxGeometry relative="1" as="geometry" />
        </mxCell>
        <mxCell id="NkXM1xrEq3wAESpb0wEN-15" style="edgeStyle=orthogonalEdgeStyle;rounded=0;orthogonalLoop=1;jettySize=auto;html=1;exitX=0.5;exitY=1;exitDx=0;exitDy=0;" edge="1" parent="WIyWlLk6GJQsqaUBKTNV-1" source="NkXM1xrEq3wAESpb0wEN-11" target="NkXM1xrEq3wAESpb0wEN-11">
          <mxGeometry relative="1" as="geometry" />
        </mxCell>
        <mxCell id="NkXM1xrEq3wAESpb0wEN-20" style="edgeStyle=orthogonalEdgeStyle;rounded=0;orthogonalLoop=1;jettySize=auto;html=1;" edge="1" parent="WIyWlLk6GJQsqaUBKTNV-1" source="NkXM1xrEq3wAESpb0wEN-18" target="NkXM1xrEq3wAESpb0wEN-19">
          <mxGeometry relative="1" as="geometry" />
        </mxCell>
        <mxCell id="NkXM1xrEq3wAESpb0wEN-18" value="GetData" style="rounded=1;whiteSpace=wrap;html=1;absoluteArcSize=1;arcSize=14;strokeWidth=2;" vertex="1" parent="WIyWlLk6GJQsqaUBKTNV-1">
          <mxGeometry x="80" y="70" width="150" height="40" as="geometry" />
        </mxCell>
        <mxCell id="NkXM1xrEq3wAESpb0wEN-24" style="edgeStyle=orthogonalEdgeStyle;rounded=0;orthogonalLoop=1;jettySize=auto;html=1;exitX=0.5;exitY=1;exitDx=0;exitDy=0;entryX=0.5;entryY=0;entryDx=0;entryDy=0;" edge="1" parent="WIyWlLk6GJQsqaUBKTNV-1" source="NkXM1xrEq3wAESpb0wEN-56" target="NkXM1xrEq3wAESpb0wEN-18">
          <mxGeometry relative="1" as="geometry">
            <Array as="points">
              <mxPoint x="155" y="250" />
              <mxPoint x="250" y="250" />
              <mxPoint x="250" y="50" />
              <mxPoint x="155" y="50" />
            </Array>
          </mxGeometry>
        </mxCell>
        <mxCell id="NkXM1xrEq3wAESpb0wEN-57" style="edgeStyle=orthogonalEdgeStyle;rounded=0;orthogonalLoop=1;jettySize=auto;html=1;entryX=0.5;entryY=0;entryDx=0;entryDy=0;" edge="1" parent="WIyWlLk6GJQsqaUBKTNV-1" source="NkXM1xrEq3wAESpb0wEN-19" target="NkXM1xrEq3wAESpb0wEN-56">
          <mxGeometry relative="1" as="geometry" />
        </mxCell>
        <mxCell id="NkXM1xrEq3wAESpb0wEN-19" value="DisplayScore" style="rounded=1;whiteSpace=wrap;html=1;absoluteArcSize=1;arcSize=14;strokeWidth=2;" vertex="1" parent="WIyWlLk6GJQsqaUBKTNV-1">
          <mxGeometry x="80" y="130" width="150" height="40" as="geometry" />
        </mxCell>
        <mxCell id="NkXM1xrEq3wAESpb0wEN-25" value="&lt;b&gt;Loop&lt;/b&gt;" style="text;html=1;align=center;verticalAlign=middle;resizable=0;points=[];autosize=1;strokeColor=none;fillColor=none;" vertex="1" parent="WIyWlLk6GJQsqaUBKTNV-1">
          <mxGeometry x="140" y="20" width="50" height="30" as="geometry" />
        </mxCell>
        <mxCell id="NkXM1xrEq3wAESpb0wEN-26" value="&lt;b&gt;Setup&lt;/b&gt;" style="text;html=1;align=center;verticalAlign=middle;resizable=0;points=[];autosize=1;strokeColor=none;fillColor=none;" vertex="1" parent="WIyWlLk6GJQsqaUBKTNV-1">
          <mxGeometry x="-205" y="20" width="60" height="30" as="geometry" />
        </mxCell>
        <mxCell id="NkXM1xrEq3wAESpb0wEN-29" style="edgeStyle=orthogonalEdgeStyle;rounded=0;orthogonalLoop=1;jettySize=auto;html=1;" edge="1" parent="WIyWlLk6GJQsqaUBKTNV-1" source="NkXM1xrEq3wAESpb0wEN-27" target="NkXM1xrEq3wAESpb0wEN-28">
          <mxGeometry relative="1" as="geometry" />
        </mxCell>
        <mxCell id="NkXM1xrEq3wAESpb0wEN-27" value="SetupScoreDisplay" style="rounded=1;whiteSpace=wrap;html=1;absoluteArcSize=1;arcSize=14;strokeWidth=2;" vertex="1" parent="WIyWlLk6GJQsqaUBKTNV-1">
          <mxGeometry x="-260" y="110" width="150" height="40" as="geometry" />
        </mxCell>
        <mxCell id="NkXM1xrEq3wAESpb0wEN-28" value="SetupRadio" style="rounded=1;whiteSpace=wrap;html=1;absoluteArcSize=1;arcSize=14;strokeWidth=2;" vertex="1" parent="WIyWlLk6GJQsqaUBKTNV-1">
          <mxGeometry x="-260" y="170" width="150" height="40" as="geometry" />
        </mxCell>
        <mxCell id="NkXM1xrEq3wAESpb0wEN-30" value="&lt;b&gt;Setup&lt;/b&gt;" style="text;html=1;align=center;verticalAlign=middle;resizable=0;points=[];autosize=1;strokeColor=none;fillColor=none;" vertex="1" parent="WIyWlLk6GJQsqaUBKTNV-1">
          <mxGeometry x="-195" y="660" width="60" height="30" as="geometry" />
        </mxCell>
        <mxCell id="NkXM1xrEq3wAESpb0wEN-31" style="edgeStyle=orthogonalEdgeStyle;rounded=0;orthogonalLoop=1;jettySize=auto;html=1;" edge="1" source="NkXM1xrEq3wAESpb0wEN-32" target="NkXM1xrEq3wAESpb0wEN-33" parent="WIyWlLk6GJQsqaUBKTNV-1">
          <mxGeometry relative="1" as="geometry" />
        </mxCell>
        <mxCell id="NkXM1xrEq3wAESpb0wEN-32" value="SetupScoreDisplay" style="rounded=1;whiteSpace=wrap;html=1;absoluteArcSize=1;arcSize=14;strokeWidth=2;" vertex="1" parent="WIyWlLk6GJQsqaUBKTNV-1">
          <mxGeometry x="-240" y="700" width="150" height="40" as="geometry" />
        </mxCell>
        <mxCell id="NkXM1xrEq3wAESpb0wEN-37" style="edgeStyle=orthogonalEdgeStyle;rounded=0;orthogonalLoop=1;jettySize=auto;html=1;" edge="1" parent="WIyWlLk6GJQsqaUBKTNV-1" source="NkXM1xrEq3wAESpb0wEN-33" target="NkXM1xrEq3wAESpb0wEN-36">
          <mxGeometry relative="1" as="geometry" />
        </mxCell>
        <mxCell id="NkXM1xrEq3wAESpb0wEN-33" value="SetupComponents" style="rounded=1;whiteSpace=wrap;html=1;absoluteArcSize=1;arcSize=14;strokeWidth=2;" vertex="1" parent="WIyWlLk6GJQsqaUBKTNV-1">
          <mxGeometry x="-240" y="760" width="150" height="40" as="geometry" />
        </mxCell>
        <mxCell id="NkXM1xrEq3wAESpb0wEN-36" value="SetupRadio" style="rounded=1;whiteSpace=wrap;html=1;absoluteArcSize=1;arcSize=14;strokeWidth=2;" vertex="1" parent="WIyWlLk6GJQsqaUBKTNV-1">
          <mxGeometry x="-240" y="820" width="150" height="40" as="geometry" />
        </mxCell>
        <mxCell id="NkXM1xrEq3wAESpb0wEN-38" value="&lt;b&gt;Loop&lt;/b&gt;" style="text;html=1;align=center;verticalAlign=middle;resizable=0;points=[];autosize=1;strokeColor=none;fillColor=none;" vertex="1" parent="WIyWlLk6GJQsqaUBKTNV-1">
          <mxGeometry x="140" y="660" width="50" height="30" as="geometry" />
        </mxCell>
        <mxCell id="NkXM1xrEq3wAESpb0wEN-44" style="edgeStyle=orthogonalEdgeStyle;rounded=0;orthogonalLoop=1;jettySize=auto;html=1;" edge="1" parent="WIyWlLk6GJQsqaUBKTNV-1" source="NkXM1xrEq3wAESpb0wEN-39" target="NkXM1xrEq3wAESpb0wEN-43">
          <mxGeometry relative="1" as="geometry" />
        </mxCell>
        <mxCell id="NkXM1xrEq3wAESpb0wEN-39" value="Receive data" style="rounded=1;whiteSpace=wrap;html=1;absoluteArcSize=1;arcSize=14;strokeWidth=2;" vertex="1" parent="WIyWlLk6GJQsqaUBKTNV-1">
          <mxGeometry x="90" y="720" width="150" height="40" as="geometry" />
        </mxCell>
        <mxCell id="NkXM1xrEq3wAESpb0wEN-46" style="edgeStyle=orthogonalEdgeStyle;rounded=0;orthogonalLoop=1;jettySize=auto;html=1;" edge="1" parent="WIyWlLk6GJQsqaUBKTNV-1" source="NkXM1xrEq3wAESpb0wEN-43" target="NkXM1xrEq3wAESpb0wEN-45">
          <mxGeometry relative="1" as="geometry" />
        </mxCell>
        <mxCell id="NkXM1xrEq3wAESpb0wEN-43" value="Set wheels motors" style="rounded=1;whiteSpace=wrap;html=1;absoluteArcSize=1;arcSize=14;strokeWidth=2;" vertex="1" parent="WIyWlLk6GJQsqaUBKTNV-1">
          <mxGeometry x="90" y="780" width="150" height="40" as="geometry" />
        </mxCell>
        <mxCell id="NkXM1xrEq3wAESpb0wEN-48" style="edgeStyle=orthogonalEdgeStyle;rounded=0;orthogonalLoop=1;jettySize=auto;html=1;entryX=0.5;entryY=0;entryDx=0;entryDy=0;" edge="1" parent="WIyWlLk6GJQsqaUBKTNV-1" source="NkXM1xrEq3wAESpb0wEN-45" target="NkXM1xrEq3wAESpb0wEN-50">
          <mxGeometry relative="1" as="geometry">
            <mxPoint x="160" y="1020" as="targetPoint" />
          </mxGeometry>
        </mxCell>
        <mxCell id="NkXM1xrEq3wAESpb0wEN-45" value="Set score" style="rounded=1;whiteSpace=wrap;html=1;absoluteArcSize=1;arcSize=14;strokeWidth=2;" vertex="1" parent="WIyWlLk6GJQsqaUBKTNV-1">
          <mxGeometry x="90" y="840" width="150" height="40" as="geometry" />
        </mxCell>
        <mxCell id="NkXM1xrEq3wAESpb0wEN-49" style="edgeStyle=orthogonalEdgeStyle;rounded=0;orthogonalLoop=1;jettySize=auto;html=1;exitX=0.5;exitY=1;exitDx=0;exitDy=0;entryX=0.5;entryY=0;entryDx=0;entryDy=0;" edge="1" parent="WIyWlLk6GJQsqaUBKTNV-1" source="NkXM1xrEq3wAESpb0wEN-47" target="NkXM1xrEq3wAESpb0wEN-39">
          <mxGeometry relative="1" as="geometry">
            <Array as="points">
              <mxPoint x="165" y="1070" />
              <mxPoint x="260" y="1070" />
              <mxPoint x="260" y="700" />
              <mxPoint x="165" y="700" />
            </Array>
          </mxGeometry>
        </mxCell>
        <mxCell id="NkXM1xrEq3wAESpb0wEN-47" value="Set grabber" style="rounded=1;whiteSpace=wrap;html=1;absoluteArcSize=1;arcSize=14;strokeWidth=2;" vertex="1" parent="WIyWlLk6GJQsqaUBKTNV-1">
          <mxGeometry x="90" y="1020" width="150" height="40" as="geometry" />
        </mxCell>
        <mxCell id="NkXM1xrEq3wAESpb0wEN-53" style="edgeStyle=orthogonalEdgeStyle;rounded=0;orthogonalLoop=1;jettySize=auto;html=1;exitX=0.5;exitY=1;exitDx=0;exitDy=0;entryX=0.5;entryY=0;entryDx=0;entryDy=0;" edge="1" parent="WIyWlLk6GJQsqaUBKTNV-1" source="NkXM1xrEq3wAESpb0wEN-50" target="NkXM1xrEq3wAESpb0wEN-51">
          <mxGeometry relative="1" as="geometry" />
        </mxCell>
        <mxCell id="NkXM1xrEq3wAESpb0wEN-50" value="Set magnets" style="rounded=1;whiteSpace=wrap;html=1;absoluteArcSize=1;arcSize=14;strokeWidth=2;" vertex="1" parent="WIyWlLk6GJQsqaUBKTNV-1">
          <mxGeometry x="90" y="900" width="150" height="40" as="geometry" />
        </mxCell>
        <mxCell id="NkXM1xrEq3wAESpb0wEN-52" style="edgeStyle=orthogonalEdgeStyle;rounded=0;orthogonalLoop=1;jettySize=auto;html=1;exitX=0.5;exitY=1;exitDx=0;exitDy=0;entryX=0.5;entryY=0;entryDx=0;entryDy=0;" edge="1" parent="WIyWlLk6GJQsqaUBKTNV-1" source="NkXM1xrEq3wAESpb0wEN-51" target="NkXM1xrEq3wAESpb0wEN-47">
          <mxGeometry relative="1" as="geometry" />
        </mxCell>
        <mxCell id="NkXM1xrEq3wAESpb0wEN-51" value="Set solar panel rods" style="rounded=1;whiteSpace=wrap;html=1;absoluteArcSize=1;arcSize=14;strokeWidth=2;" vertex="1" parent="WIyWlLk6GJQsqaUBKTNV-1">
          <mxGeometry x="90" y="960" width="150" height="40" as="geometry" />
        </mxCell>
        <mxCell id="NkXM1xrEq3wAESpb0wEN-55" style="edgeStyle=orthogonalEdgeStyle;rounded=0;orthogonalLoop=1;jettySize=auto;html=1;exitX=0.5;exitY=1;exitDx=0;exitDy=0;" edge="1" parent="WIyWlLk6GJQsqaUBKTNV-1" source="NkXM1xrEq3wAESpb0wEN-54" target="NkXM1xrEq3wAESpb0wEN-27">
          <mxGeometry relative="1" as="geometry" />
        </mxCell>
        <mxCell id="NkXM1xrEq3wAESpb0wEN-54" value="SetupInputs" style="rounded=1;whiteSpace=wrap;html=1;absoluteArcSize=1;arcSize=14;strokeWidth=2;" vertex="1" parent="WIyWlLk6GJQsqaUBKTNV-1">
          <mxGeometry x="-260" y="50" width="150" height="40" as="geometry" />
        </mxCell>
        <mxCell id="NkXM1xrEq3wAESpb0wEN-56" value="SendData" style="rounded=1;whiteSpace=wrap;html=1;absoluteArcSize=1;arcSize=14;strokeWidth=2;" vertex="1" parent="WIyWlLk6GJQsqaUBKTNV-1">
          <mxGeometry x="80" y="190" width="150" height="40" as="geometry" />
        </mxCell>
      </root>
    </mxGraphModel>
  </diagram>
</mxfile>
